HIERARCHY
ROOT Hips
{
	OFFSET 0.000000 97.167313 0.000000
	CHANNELS 6 Xposition Yposition Zposition Xrotation Yrotation Zrotation
	JOINT Spine
	{
		OFFSET 0.000000 13.784798 0.064400
		CHANNELS 3 Xrotation Yrotation Zrotation
		JOINT Spine1
		{
			OFFSET 0.000000 12.037903 0.404700
			CHANNELS 3 Xrotation Yrotation Zrotation
			JOINT Spine2
			{
				OFFSET 0.000000 17.795601 0.420200
				CHANNELS 3 Xrotation Yrotation Zrotation
				JOINT Neck
				{
					OFFSET 0.000000 39.131302 11.954600
					CHANNELS 3 Xrotation Yrotation Zrotation
					JOINT Head
					{
						OFFSET 0.000000 14.456192 15.627699
						CHANNELS 3 Xrotation Yrotation Zrotation
						JOINT HeadTop_End
						{
							OFFSET 0.000000 15.703506 7.603401
							CHANNELS 3 Xrotation Yrotation Zrotation
							End Site
							{
								OFFSET 0.000000 17.447403 0.000000
							}
						}
					}
				}
				JOINT LeftShoulder
				{
					OFFSET 17.399500 24.608795 1.168800
					CHANNELS 3 Xrotation Yrotation Zrotation
					JOINT LeftArm
					{
						OFFSET 18.980635 5.765305 1.818600
						CHANNELS 3 Xrotation Yrotation Zrotation
						JOINT LeftForeArm
						{
							OFFSET 49.290169 0.000000 0.000000
							CHANNELS 3 Xrotation Yrotation Zrotation
							JOINT LeftHand
							{
								OFFSET 31.562012 0.000000 0.000000
								CHANNELS 3 Xrotation Yrotation Zrotation
								JOINT LeftHandThumb1
								{
									OFFSET 6.133995 -4.388519 7.076070
									CHANNELS 3 Xrotation Yrotation Zrotation
									JOINT LeftHandThumb2
									{
										OFFSET 6.037666 -3.485840 3.485847
										CHANNELS 3 Xrotation Yrotation Zrotation
										JOINT LeftHandThumb3
										{
											OFFSET 6.496506 -3.750763 3.750761
											CHANNELS 3 Xrotation Yrotation Zrotation
											JOINT LeftHandThumb4
											{
												OFFSET 5.616882 -3.242905 3.242910
												CHANNELS 3 Xrotation Yrotation Zrotation
												End Site
												{
													OFFSET -1.254608 7.132141 0.375429
												}
											}
										}
									}
								}
								JOINT LeftHandPinky1
								{
									OFFSET 18.920792 -0.453171 -11.426712
									CHANNELS 3 Xrotation Yrotation Zrotation
									JOINT LeftHandPinky2
									{
										OFFSET 4.919586 0.000000 0.000000
										CHANNELS 3 Xrotation Yrotation Zrotation
										JOINT LeftHandPinky3
										{
											OFFSET 5.233047 0.000000 0.000000
											CHANNELS 3 Xrotation Yrotation Zrotation
											JOINT LeftHandPinky4
											{
												OFFSET 5.571716 0.000000 0.000000
												CHANNELS 3 Xrotation Yrotation Zrotation
												End Site
												{
													OFFSET -3.459808 4.342407 -0.466164
												}
											}
										}
									}
								}
								JOINT LeftHandRing1
								{
									OFFSET 22.726120 -0.094986 -6.500475
									CHANNELS 3 Xrotation Yrotation Zrotation
									JOINT LeftHandRing2
									{
										OFFSET 6.408615 0.000000 0.000000
										CHANNELS 3 Xrotation Yrotation Zrotation
										JOINT LeftHandRing3
										{
											OFFSET 6.150223 0.000000 0.000000
											CHANNELS 3 Xrotation Yrotation Zrotation
											JOINT LeftHandRing4
											{
												OFFSET 6.145386 0.000000 0.000000
												CHANNELS 3 Xrotation Yrotation Zrotation
												End Site
												{
													OFFSET -3.671402 4.923981 -0.202372
												}
											}
										}
									}
								}
								JOINT LeftHandMiddle1
								{
									OFFSET 23.373947 0.000000 0.000001
									CHANNELS 3 Xrotation Yrotation Zrotation
									JOINT LeftHandMiddle2
									{
										OFFSET 6.996567 0.000000 0.000000
										CHANNELS 3 Xrotation Yrotation Zrotation
										JOINT LeftHandMiddle3
										{
											OFFSET 7.015945 0.000000 0.000000
											CHANNELS 3 Xrotation Yrotation Zrotation
											JOINT LeftHandMiddle4
											{
												OFFSET 7.721573 0.000000 0.000000
												CHANNELS 3 Xrotation Yrotation Zrotation
												End Site
												{
													OFFSET -4.651108 6.158463 0.251582
												}
											}
										}
									}
								}
								JOINT LeftHandIndex1
								{
									OFFSET 21.310577 -0.490082 6.209344
									CHANNELS 3 Xrotation Yrotation Zrotation
									JOINT LeftHandIndex2
									{
										OFFSET 7.536453 0.000000 0.000000
										CHANNELS 3 Xrotation Yrotation Zrotation
										JOINT LeftHandIndex3
										{
											OFFSET 7.512344 0.000000 0.000000
											CHANNELS 3 Xrotation Yrotation Zrotation
											JOINT LeftHandIndex4
											{
												OFFSET 10.212402 0.000000 0.000001
												CHANNELS 3 Xrotation Yrotation Zrotation
												End Site
												{
													OFFSET -5.180801 8.690506 1.388433
												}
											}
										}
									}
								}
							}
						}
					}
				}
				JOINT RightShoulder
				{
					OFFSET -17.399500 24.608795 1.168800
					CHANNELS 3 Xrotation Yrotation Zrotation
					JOINT RightArm
					{
						OFFSET -18.980635 5.765305 1.818600
						CHANNELS 3 Xrotation Yrotation Zrotation
						JOINT RightForeArm
						{
							OFFSET -49.290169 0.000000 0.000000
							CHANNELS 3 Xrotation Yrotation Zrotation
							JOINT RightHand
							{
								OFFSET -31.562012 0.000000 0.000000
								CHANNELS 3 Xrotation Yrotation Zrotation
								JOINT RightHandThumb1
								{
									OFFSET -6.133995 -4.388519 7.076070
									CHANNELS 3 Xrotation Yrotation Zrotation
									JOINT RightHandThumb2
									{
										OFFSET -6.037666 -3.485840 3.485847
										CHANNELS 3 Xrotation Yrotation Zrotation
										JOINT RightHandThumb3
										{
											OFFSET -6.496506 -3.750763 3.750761
											CHANNELS 3 Xrotation Yrotation Zrotation
											JOINT RightHandThumb4
											{
												OFFSET -5.616882 -3.242905 3.242910
												CHANNELS 3 Xrotation Yrotation Zrotation
												End Site
												{
													OFFSET 1.254608 7.132141 0.375429
												}
											}
										}
									}
								}
								JOINT RightHandIndex1
								{
									OFFSET -21.310577 -0.490082 6.209344
									CHANNELS 3 Xrotation Yrotation Zrotation
									JOINT RightHandIndex2
									{
										OFFSET -7.536453 0.000000 0.000000
										CHANNELS 3 Xrotation Yrotation Zrotation
										JOINT RightHandIndex3
										{
											OFFSET -7.512344 0.000000 0.000000
											CHANNELS 3 Xrotation Yrotation Zrotation
											JOINT RightHandIndex4
											{
												OFFSET -10.212402 0.000000 0.000001
												CHANNELS 3 Xrotation Yrotation Zrotation
												End Site
												{
													OFFSET 5.180801 8.690506 1.388433
												}
											}
										}
									}
								}
								JOINT RightHandMiddle1
								{
									OFFSET -23.373947 0.000000 0.000001
									CHANNELS 3 Xrotation Yrotation Zrotation
									JOINT RightHandMiddle2
									{
										OFFSET -6.996567 0.000000 0.000000
										CHANNELS 3 Xrotation Yrotation Zrotation
										JOINT RightHandMiddle3
										{
											OFFSET -7.015945 0.000000 0.000000
											CHANNELS 3 Xrotation Yrotation Zrotation
											JOINT RightHandMiddle4
											{
												OFFSET -7.721573 0.000000 0.000000
												CHANNELS 3 Xrotation Yrotation Zrotation
												End Site
												{
													OFFSET 4.651108 6.158463 0.251582
												}
											}
										}
									}
								}
								JOINT RightHandRing1
								{
									OFFSET -22.726120 -0.094986 -6.500475
									CHANNELS 3 Xrotation Yrotation Zrotation
									JOINT RightHandRing2
									{
										OFFSET -6.408615 0.000000 0.000000
										CHANNELS 3 Xrotation Yrotation Zrotation
										JOINT RightHandRing3
										{
											OFFSET -6.150223 0.000000 0.000000
											CHANNELS 3 Xrotation Yrotation Zrotation
											JOINT RightHandRing4
											{
												OFFSET -6.145386 0.000000 0.000000
												CHANNELS 3 Xrotation Yrotation Zrotation
												End Site
												{
													OFFSET 3.671402 4.923981 -0.202372
												}
											}
										}
									}
								}
								JOINT RightHandPinky1
								{
									OFFSET -18.920792 -0.453171 -11.426712
									CHANNELS 3 Xrotation Yrotation Zrotation
									JOINT RightHandPinky2
									{
										OFFSET -4.919586 0.000000 0.000000
										CHANNELS 3 Xrotation Yrotation Zrotation
										JOINT RightHandPinky3
										{
											OFFSET -5.233047 0.000000 0.000000
											CHANNELS 3 Xrotation Yrotation Zrotation
											JOINT RightHandPinky4
											{
												OFFSET -5.571716 0.000000 0.000000
												CHANNELS 3 Xrotation Yrotation Zrotation
												End Site
												{
													OFFSET 3.459808 4.342407 -0.466164
												}
											}
										}
									}
								}
							}
						}
					}
				}
			}
		}
	}
	JOINT LeftUpLeg
	{
		OFFSET 19.899099 -7.885101 -3.429500
		CHANNELS 3 Xrotation Yrotation Zrotation
		JOINT LeftLeg
		{
			OFFSET 1.745560 -36.997807 10.304700
			CHANNELS 3 Xrotation Yrotation Zrotation
			JOINT LeftFoot
			{
				OFFSET -1.745558 -29.803308 -13.615400
				CHANNELS 3 Xrotation Yrotation Zrotation
				JOINT LeftToeBase
				{
					OFFSET 1.181900 -18.539904 15.226099
					CHANNELS 3 Xrotation Yrotation Zrotation
					JOINT LeftToe_End
					{
						OFFSET -0.863701 1.402801 16.534700
						CHANNELS 3 Xrotation Yrotation Zrotation
						End Site
						{
							OFFSET 0.000000 16.616566 0.000000
						}
					}
				}
			}
		}
	}
	JOINT RightUpLeg
	{
		OFFSET -19.899099 -7.885101 -3.429500
		CHANNELS 3 Xrotation Yrotation Zrotation
		JOINT RightLeg
		{
			OFFSET -1.745560 -36.997807 10.304700
			CHANNELS 3 Xrotation Yrotation Zrotation
			JOINT RightFoot
			{
				OFFSET 1.745558 -29.803308 -13.615400
				CHANNELS 3 Xrotation Yrotation Zrotation
				JOINT RightToeBase
				{
					OFFSET -1.181900 -18.539904 15.226099
					CHANNELS 3 Xrotation Yrotation Zrotation
					JOINT RightToe_End
					{
						OFFSET 0.863701 1.402801 16.534700
						CHANNELS 3 Xrotation Yrotation Zrotation
						End Site
						{
							OFFSET 0.000000 16.616566 0.000000
						}
					}
				}
			}
		}
	}
}
MOTION
Frames: 5
Frame Time: 0.033333
-0.924565 86.059586 1.788491 5.048649 -15.645527 0.435122 23.111383 4.265116 -0.553180 3.699071 1.240286 -0.840911 3.692192 1.313816 -0.845959 -12.698324 1.122663 2.284735 -14.088196 7.830457 -3.299428 -0.000001 0.000000 0.000000 7.812695 -20.949865 9.748535 -33.643548 -3.123749 -85.447149 0.000041 -42.998267 -4.823090 -17.287129 -10.866551 -12.599032 -7.471932 1.860677 -7.166923 30.987038 27.310513 -4.510894 83.254651 13.297940 -10.940301 0.000002 -0.000001 -0.000001 -17.098972 22.128947 -43.123175 0.019734 0.027007 -78.662906 0.004937 0.007736 -26.297183 0.000000 -0.000000 -0.000000 -6.443158 23.132649 -76.210158 0.012869 0.975928 -51.002983 6.771123 8.412939 -40.137012 -0.000000 0.000000 0.000003 1.623341 16.580942 -84.691279 0.018000 0.022045 -72.884853 -1.296717 -0.092182 -19.943275 0.000001 0.000000 0.000008 -4.707377 11.366684 -75.214453 -0.816390 3.073996 -46.874632 -4.740644 0.379133 -78.699461 -0.000002 0.000001 0.000001 13.916947 27.241144 -23.493044 -43.128779 -5.410684 84.810964 0.000051 58.104508 5.767162 -18.206848 16.096545 8.636294 9.347180 2.810569 -11.364514 16.169103 -43.265997 15.843580 32.491763 -44.566790 5.661117 0.000003 -0.000001 -0.000000 17.076795 -0.396532 31.924345 -0.204387 -0.284213 112.811564 1.553158 -1.173019 33.344567 -0.000001 -0.000001 0.000001 9.205475 -5.035887 102.738080 0.014986 -0.019209 61.018519 1.871344 0.346188 31.443783 0.000001 0.000001 -0.000002 5.569150 -8.935242 107.329101 0.547990 -0.005772 41.263714 0.739123 0.837853 51.122238 -0.000003 -0.000001 -0.000003 6.511226 -17.148228 98.228017 0.007430 -0.015763 43.845737 0.011252 -0.024769 57.754584 0.000001 0.000001 0.000007 -35.893484 1.735132 12.727242 30.867165 2.913072 0.600506 1.378266 1.411484 -8.464211 -0.359395 -1.379841 -0.238580 0.000000 0.000000 0.000000 -8.131303 -10.848292 -15.450054 28.346788 -3.612488 2.769243 -21.641104 -5.287963 13.815585 -1.226003 1.210086 -0.216735 -0.000000 0.000001 -0.000000 
-0.264350 85.987518 1.909512 5.287102 -15.978615 0.604742 22.668023 3.510269 -0.048802 3.367925 0.529630 -0.789221 3.359850 0.605048 -0.782266 -12.553307 2.297033 2.516897 -13.019240 11.263784 -4.493041 -0.000001 0.000000 -0.000000 7.407506 -21.525785 9.088585 -33.299187 -10.885302 -83.692938 0.000031 -47.149226 -5.133144 -21.762692 -12.393049 -6.395216 -7.471932 1.860677 -7.166923 30.987035 27.310518 -4.510892 83.254658 13.297938 -10.940296 -0.000000 0.000001 -0.000002 -17.098977 22.128947 -43.123175 0.019739 0.027011 -78.662899 0.004937 0.007741 -26.297185 -0.000002 0.000002 -0.000002 -6.443158 23.132652 -76.210158 0.012868 0.975923 -51.002986 6.771118 8.412940 -40.137016 0.000001 0.000002 0.000000 1.623340 16.580936 -84.691272 0.018002 0.022043 -72.884846 -1.296719 -0.092178 -19.943280 -0.000002 -0.000000 0.000008 -4.707377 11.366681 -75.214453 -0.816389 3.074000 -46.874635 -4.740647 0.379126 -78.699468 -0.000000 0.000005 -0.000001 13.997206 25.906445 -23.329853 -39.574751 -3.573887 83.577125 -0.000000 67.544594 3.007553 -18.495275 13.396592 9.377575 9.347180 2.810565 -11.364514 16.169103 -43.265994 15.843580 32.491773 -44.566786 5.661117 -0.000000 0.000001 -0.000000 17.076793 -0.396532 31.924345 -0.204392 -0.284211 112.811571 1.553160 -1.173018 33.344563 -0.000000 0.000000 -0.000001 9.205473 -5.035886 102.738073 0.014990 -0.019210 61.018513 1.871342 0.346187 31.443783 0.000000 0.000000 -0.000008 5.569148 -8.935243 107.329094 0.547991 -0.005771 41.263714 0.739123 0.837852 51.122245 -0.000002 -0.000002 -0.000000 6.511224 -17.148233 98.228017 0.007426 -0.015761 43.845740 0.011252 -0.024772 57.754584 -0.000001 -0.000000 0.000002 -35.620775 2.664104 13.966073 31.871456 4.610051 -1.187076 -0.188886 1.009390 -9.690275 0.195716 -1.457676 0.116147 -0.000000 0.000000 0.000000 -8.909230 -11.001301 -16.047663 28.328795 -2.706142 2.477161 -21.163438 -5.676730 14.102019 -1.226060 1.211324 -0.367763 0.000000 -0.000003 0.000000 
0.420544 85.892700 1.896098 5.629767 -16.185337 0.857558 22.607216 2.525617 0.330513 3.050792 -0.257488 -0.670478 3.043168 -0.180672 -0.646461 -13.027731 3.571577 2.932532 -11.936223 14.939871 -5.765101 -0.000000 0.000000 -0.000000 7.478575 -22.247775 9.272757 -37.579769 -21.266525 -80.657274 0.000016 -48.994340 -4.430947 -25.331454 -15.697696 3.313273 -7.471929 1.860682 -7.166923 30.987035 27.310517 -4.510890 83.254651 13.297941 -10.940302 0.000002 0.000004 0.000000 -17.098970 22.128947 -43.123178 0.019737 0.027009 -78.662899 0.004939 0.007741 -26.297186 0.000001 -0.000001 -0.000002 -6.443154 23.132647 -76.210158 0.012868 0.975922 -51.002986 6.771123 8.412938 -40.137012 -0.000001 0.000003 0.000003 1.623346 16.580936 -84.691272 0.018000 0.022043 -72.884853 -1.296714 -0.092178 -19.943280 0.000001 0.000004 0.000007 -4.707376 11.366682 -75.214453 -0.816392 3.073999 -46.874635 -4.740644 0.379132 -78.699468 -0.000004 0.000003 0.000001 13.759791 25.384234 -22.463816 -38.662429 -3.052427 79.713758 0.000035 75.996448 -1.147514 -19.491797 12.957705 14.219709 9.347181 2.810566 -11.364512 16.169098 -43.265997 15.843577 32.491760 -44.566786 5.661123 0.000003 -0.000001 0.000001 17.076791 -0.396534 31.924345 -0.204391 -0.284212 112.811564 1.553156 -1.173021 33.344563 -0.000001 0.000000 -0.000001 9.205475 -5.035887 102.738080 0.014988 -0.019211 61.018519 1.871342 0.346189 31.443787 0.000000 -0.000000 -0.000004 5.569149 -8.935244 107.329101 0.547988 -0.005769 41.263714 0.739121 0.837854 51.122238 -0.000001 0.000002 -0.000007 6.511221 -17.148230 98.228017 0.007430 -0.015760 43.845740 0.011250 -0.024771 57.754577 0.000002 0.000004 0.000001 -35.322914 3.335608 15.573793 34.432001 10.373449 -4.073357 -1.797156 1.517938 -11.480343 0.177352 -1.114696 0.431491 -0.000000 0.000000 0.000000 -10.090201 -11.569172 -16.767192 28.399320 -1.076400 2.354138 -20.732703 -6.231070 13.903936 -1.226111 1.212676 -0.521528 -0.000000 0.000000 0.000000 
0.978669 85.697289 1.913587 6.011657 -16.219471 0.973136 22.669169 1.711457 0.545237 2.761164 -0.949693 -0.450771 2.751748 -0.871488 -0.416032 -13.887940 4.592077 3.672646 -10.922166 18.360962 -7.111095 0.000000 0.000000 -0.000000 7.977417 -22.409373 11.043244 -44.179064 -32.732237 -74.991147 0.000037 -49.222626 -3.986683 -29.733944 -18.798801 11.969650 -7.471932 1.860675 -7.166918 30.987038 27.310523 -4.510889 83.254651 13.297936 -10.940300 -0.000000 -0.000001 0.000001 -17.098974 22.128944 -43.123175 0.019735 0.027010 -78.662906 0.004937 0.007733 -26.297191 0.000000 -0.000002 -0.000001 -6.443156 23.132649 -76.210158 0.012873 0.975926 -51.002986 6.771123 8.412936 -40.137016 -0.000002 0.000001 0.000005 1.623347 16.580936 -84.691265 0.017994 0.022047 -72.884853 -1.296712 -0.092181 -19.943280 0.000001 -0.000004 0.000006 -4.707374 11.366681 -75.214453 -0.816389 3.073995 -46.874632 -4.740646 0.379133 -78.699461 -0.000002 0.000003 0.000001 13.428900 25.454588 -21.051738 -42.236814 -3.052687 75.279449 0.000179 81.889815 -6.035315 -19.704092 12.946492 19.210440 9.347180 2.810566 -11.364509 16.169098 -43.265994 15.843585 32.491763 -44.566783 5.661114 0.000001 -0.000002 0.000002 17.076791 -0.396532 31.924349 -0.204387 -0.284211 112.811564 1.553160 -1.173018 33.344567 -0.000002 -0.000006 -0.000002 9.205474 -5.035888 102.738087 0.014990 -0.019210 61.018519 1.871343 0.346189 31.443783 0.000000 0.000000 -0.000001 5.569149 -8.935245 107.329101 0.547988 -0.005772 41.263710 0.739123 0.837852 51.122241 -0.000000 -0.000001 -0.000002 6.511223 -17.148235 98.228017 0.007427 -0.015761 43.845740 0.011252 -0.024771 57.754584 0.000001 0.000003 -0.000001 -35.093782 4.150105 16.902073 38.874968 18.962026 -7.870027 -3.539215 2.053756 -11.970551 -0.426331 -0.719234 0.804001 -0.000000 0.000001 0.000001 -11.321868 -12.759250 -17.200054 28.572840 1.061703 2.100087 -20.589201 -6.922754 13.404379 -1.226154 1.214079 -0.676223 -0.000000 -0.000001 -0.000000 
1.290062 85.280319 2.162450 6.301553 -15.891531 0.697563 22.559350 1.462421 0.586586 2.430462 -1.352509 -0.126180 2.418602 -1.270720 -0.092146 -14.757267 4.943509 4.718481 -9.998547 20.976636 -8.366989 0.000000 -0.000000 0.000000 8.493053 -21.079622 14.449369 -48.560374 -40.593191 -65.977585 0.000020 -51.970209 -5.013957 -33.306461 -19.352402 17.598350 -7.471932 1.860675 -7.166917 30.987038 27.310520 -4.510894 83.254658 13.297935 -10.940302 -0.000000 -0.000001 -0.000003 -17.098974 22.128947 -43.123181 0.019731 0.027008 -78.662906 0.004936 0.007736 -26.297186 -0.000000 -0.000004 0.000000 -6.443158 23.132647 -76.210158 0.012870 0.975926 -51.002986 6.771120 8.412938 -40.137012 0.000001 -0.000001 0.000003 1.623340 16.580940 -84.691272 0.017997 0.022046 -72.884846 -1.296716 -0.092180 -19.943285 0.000001 0.000000 0.000001 -4.707378 11.366684 -75.214460 -0.816389 3.073997 -46.874632 -4.740648 0.379130 -78.699461 -0.000000 0.000001 0.000002 13.334621 25.781507 -19.765866 -49.506799 -1.624582 72.534259 0.000434 85.847480 -11.065275 -18.646101 12.951866 21.569601 9.347186 2.810564 -11.364512 16.169105 -43.265997 15.843582 32.491767 -44.566790 5.661121 -0.000001 0.000000 0.000002 17.076795 -0.396531 31.924352 -0.204388 -0.284209 112.811571 1.553160 -1.173019 33.344567 -0.000003 -0.000003 -0.000001 9.205474 -5.035886 102.738080 0.014986 -0.019210 61.018519 1.871343 0.346188 31.443783 -0.000000 -0.000002 -0.000009 5.569148 -8.935246 107.329101 0.547988 -0.005770 41.263714 0.739122 0.837855 51.122241 -0.000000 -0.000000 -0.000002 6.511224 -17.148233 98.228024 0.007428 -0.015761 43.845740 0.011254 -0.024771 57.754584 -0.000001 0.000000 -0.000003 -35.471419 5.330180 17.789033 44.588844 26.885103 -12.199972 -5.205341 2.479724 -10.341071 -1.445546 -0.592004 1.405874 -0.000000 -0.000001 -0.000000 -12.036293 -14.660600 -17.122389 28.896959 3.503966 1.791196 -21.091909 -7.765041 12.640615 -1.226220 1.215545 -0.829985 -0.000000 0.000001 -0.000000 
